<?xml version="1.0" standalone="no"?>
<!DOCTYPE svg PUBLIC "-//W3C//DTD SVG 20010904//EN"
 "http://www.w3.org/TR/2001/REC-SVG-20010904/DTD/svg10.dtd">
<svg version="1.0" xmlns="http://www.w3.org/2000/svg"
 width="1179.000000pt" height="1179.000000pt" viewBox="0 0 1179.000000 1179.000000"
 preserveAspectRatio="xMidYMid meet">

<g transform="translate(0.000000,1179.000000) scale(0.100000,-0.100000)"
fill="#000000" stroke="none">
<path d="M5173 7245 c-45 -19 -66 -55 -58 -99 l7 -36 -43 5 c-58 8 -91 -11
-107 -59 -20 -62 11 -104 133 -182 21 -14 27 -15 21 -4 -5 8 1 5 13 -7 23 -25
69 -39 151 -48 67 -8 80 -18 80 -63 0 -47 20 -162 32 -185 23 -44 -29 5 -77
72 -27 39 -56 70 -62 71 -7 0 -13 -2 -13 -5 0 -5 41 -65 102 -149 15 -22 26
-41 23 -44 -3 -3 -27 7 -54 21 -61 34 -81 34 -81 4 0 -52 101 -154 141 -144
11 3 16 1 13 -5 -3 -5 2 -19 13 -30 10 -12 13 -19 7 -15 -8 4 -13 -14 -17 -56
-3 -34 -13 -84 -22 -112 -21 -61 -67 -158 -78 -166 -5 -3 -8 -8 -7 -10 4 -6
-54 -99 -61 -99 -7 0 -19 52 -19 83 0 11 16 42 35 68 19 27 35 56 35 63 0 8 5
18 10 21 13 8 13 82 0 90 -5 3 -18 -3 -29 -14 -25 -25 -71 -114 -71 -137 0
-22 -24 10 -69 89 -39 68 -35 94 23 153 61 63 56 139 -10 164 -45 17 -72 12
-95 -20 -21 -28 -25 -29 -75 -24 -29 4 -64 4 -78 0 -32 -8 -43 -42 -22 -65 9
-10 15 -29 14 -42 -2 -18 8 -30 46 -56 26 -18 61 -33 77 -33 29 0 79 -42 79
-67 0 -6 7 -19 16 -28 29 -28 92 -162 99 -208 12 -76 2 -88 -25 -33 -25 49
-83 106 -109 106 -10 0 -12 -11 -8 -46 2 -26 9 -49 14 -53 5 -3 19 -23 32 -43
12 -21 27 -38 32 -38 15 0 10 -21 -22 -100 -39 -95 -59 -201 -47 -255 20 -86
81 -115 210 -97 135 20 240 79 376 214 39 40 72 65 72 57 0 -13 -36 -152 -55
-215 -9 -29 20 -53 39 -33 7 8 44 82 81 164 110 241 219 435 245 435 14 0 17
-109 8 -265 -10 -160 -6 -206 17 -225 12 -10 20 -9 39 3 32 22 46 52 121 257
78 217 115 304 148 357 55 86 57 66 27 -187 -36 -299 -24 -440 41 -515 43 -48
92 -48 184 0 71 37 75 40 176 134 36 33 69 61 72 61 4 0 7 -17 7 -37 1 -51 31
-116 66 -139 78 -53 188 -68 284 -39 33 10 60 21 60 25 0 5 10 10 23 13 12 4
64 40 116 81 52 42 96 75 97 73 1 -1 -9 -41 -23 -90 -20 -70 -23 -90 -13 -102
7 -8 18 -15 24 -15 6 0 30 46 53 103 95 229 241 448 368 553 104 87 205 118
305 94 44 -10 54 -10 61 1 13 22 5 33 -32 46 -49 17 -151 16 -206 -3 -104 -35
-218 -131 -319 -265 -27 -37 -53 -74 -59 -84 -6 -10 -16 -14 -27 -10 -10 4
-16 10 -14 14 2 3 23 77 46 164 32 124 38 162 29 173 -27 33 -35 14 -110 -269
l-52 -198 -88 -81 c-49 -44 -86 -85 -82 -91 3 -6 1 -7 -4 -4 -6 4 -34 -9 -63
-28 -55 -37 -134 -65 -185 -65 -102 0 -185 58 -185 129 0 38 0 38 55 50 35 8
53 16 49 23 -5 7 -2 8 5 4 15 -10 135 68 204 133 67 62 137 158 137 188 0 36
-53 56 -117 44 -112 -22 -196 -76 -305 -196 -184 -202 -319 -323 -395 -354
-18 -7 -48 -11 -68 -9 -19 2 -37 -1 -40 -7 -2 -5 -4 -3 -3 5 1 8 -6 31 -15 51
-26 60 -31 179 -13 339 33 286 35 309 26 342 -16 54 -57 64 -103 23 -33 -29
-120 -199 -121 -237 -1 -14 -4 -24 -7 -22 -3 2 -32 -67 -63 -154 -31 -86 -61
-164 -66 -172 -7 -10 -9 52 -8 185 3 178 1 204 -15 228 -10 16 -26 27 -40 27
-33 0 -99 -72 -149 -164 -62 -111 -71 -103 -50 43 12 83 4 116 -28 116 -23 0
-24 -4 -25 -65 -1 -36 -8 -98 -15 -139 -13 -71 -17 -78 -79 -144 -162 -172
-336 -274 -475 -278 -67 -2 -93 12 -102 56 -9 52 4 120 42 215 19 47 36 90 38
95 12 49 106 139 193 184 23 12 48 49 40 58 -3 3 -26 -14 -51 -37 -25 -24 -46
-40 -46 -36 0 4 -11 -1 -25 -10 -27 -18 -35 -5 -10 16 8 7 15 19 15 26 0 8 4
14 8 14 10 0 55 96 75 160 26 80 38 193 32 286 l-6 89 35 19 c45 24 84 80 101
147 12 45 13 73 2 58 -2 -2 -31 -36 -64 -75 -33 -40 -63 -78 -65 -85 -8 -20
-15 -9 -21 31 -5 34 -14 83 -23 127 -3 16 4 30 21 45 14 12 25 27 25 35 0 7
17 21 38 32 120 62 166 232 73 271 -36 14 -93 7 -111 -15 -10 -12 -16 -12 -26
-4 -8 6 -11 15 -9 20 12 18 -34 87 -66 98 -43 15 -117 13 -156 -4z m178 -34
c16 -16 30 -40 30 -53 3 -39 0 -111 -4 -115 -3 -2 -24 1 -48 7 -24 5 -70 13
-102 16 -42 4 -60 10 -64 22 -3 9 -12 32 -19 49 -27 61 21 102 119 103 52 0
62 -3 88 -29z m216 -97 c50 -68 -44 -213 -149 -230 l-37 -6 10 38 c6 21 8 55
5 75 -7 42 18 97 58 132 26 23 94 18 113 -9z m-442 -34 c13 -11 13 -15 0 -33
-8 -12 -15 -32 -15 -45 0 -34 38 -104 53 -96 7 4 9 4 5 -1 -4 -4 -3 -14 3 -22
16 -18 -10 -17 -34 2 -11 7 -26 11 -35 8 -10 -4 -13 -2 -8 5 4 7 -2 16 -17 21
-32 12 -87 77 -88 104 -2 38 2 52 19 65 20 16 94 11 117 -8z m160 -40 c81 -13
99 -35 91 -109 -11 -91 -23 -101 -98 -81 -73 21 -157 123 -144 175 6 22 12 25
49 25 23 0 69 -4 102 -10z m18 -521 c32 -16 97 -81 97 -96 0 -27 -35 -11 -82
37 -59 62 -65 85 -15 59z m-183 -57 c0 -9 -62 -34 -68 -27 -2 2 -2 11 1 20 6
15 67 22 67 7z m40 -57 c0 -8 6 -15 13 -15 7 0 8 -3 2 -8 -6 -4 -26 -28 -45
-54 -19 -26 -40 -48 -45 -48 -15 0 -43 82 -35 104 9 27 70 56 92 45 10 -5 18
-16 18 -24z m-200 15 c13 0 40 -30 40 -44 0 -15 -86 -19 -112 -5 -10 5 -18 16
-18 24 0 15 48 36 68 29 8 -2 17 -4 22 -4z m34 -84 c52 -21 61 -76 14 -76 -23
0 -108 46 -108 59 0 8 37 29 53 30 4 1 23 -5 41 -13z m118 -383 c15 -18 58
-97 58 -108 0 -3 -6 -5 -13 -5 -15 0 -77 92 -77 114 0 21 13 20 32 -1z m2208
-2 c0 -39 -132 -173 -226 -230 -35 -21 -61 -41 -57 -45 4 -4 0 -4 -9 -1 -9 4
-26 1 -38 -5 -32 -17 -35 -6 -10 45 34 70 148 180 222 215 61 29 118 39 118
21z"/>
<path d="M4661 6859 c-35 -14 -129 -115 -183 -195 -121 -182 -353 -640 -343
-677 5 -16 4 -18 -4 -8 -8 12 -12 10 -22 -11 -10 -22 -21 -28 -75 -37 -308
-53 -446 -63 -499 -39 -22 10 -28 9 -36 -3 -12 -20 -7 -32 22 -46 57 -27 176
-22 416 17 69 12 127 19 129 17 2 -2 -25 -70 -61 -151 -147 -331 -339 -821
-331 -842 17 -45 42 1 156 281 158 392 208 512 226 547 9 16 13 36 10 44 -3 8
-2 13 2 10 5 -3 21 24 38 60 19 42 36 66 49 68 21 5 292 41 381 52 29 3 54 2
56 -3 3 -4 -5 -71 -17 -148 -53 -330 -69 -517 -62 -710 3 -82 13 -181 21 -220
34 -153 131 -286 231 -318 82 -25 140 -30 155 -12 20 24 -3 41 -64 48 -277 28
-353 370 -245 1102 39 269 36 259 90 267 24 3 81 7 125 7 61 1 85 5 94 16 24
29 -3 37 -114 36 -58 -1 -112 -4 -121 -7 -20 -8 -20 -6 20 216 82 451 90 577
43 627 -23 24 -48 28 -87 12z m57 -119 c4 -87 -13 -208 -68 -512 -22 -119 -40
-219 -40 -222 0 -3 -22 -6 -49 -6 -50 0 -341 -36 -374 -46 -27 -8 -20 10 84
221 159 324 266 501 360 595 70 70 83 65 87 -30z"/>
<path d="M6906 5138 c-22 -12 -11 -28 20 -28 23 0 24 -2 24 -80 0 -44 -2 -80
-5 -80 -2 0 -21 9 -41 21 -71 39 -167 -5 -192 -89 -35 -115 8 -239 89 -257 37
-8 101 10 124 35 24 27 35 25 35 -5 0 -23 3 -25 50 -25 37 0 50 4 50 15 0 8
-11 17 -25 21 -14 3 -25 11 -25 18 -1 6 -2 112 -3 236 l-2 225 -41 1 c-23 1
-49 -3 -58 -8z m19 -211 c11 -6 22 -11 25 -10 3 1 4 -44 3 -99 -2 -108 -9
-126 -62 -148 -39 -16 -89 -1 -115 34 -25 32 -28 132 -6 181 7 17 12 35 11 40
-2 6 0 7 4 3 3 -3 18 0 33 8 28 15 70 11 107 -9z"/>
<path d="M7478 5133 c-7 -9 -6 -14 6 -18 9 -3 23 -7 31 -10 13 -4 15 -37 15
-219 l0 -214 -25 -6 c-14 -4 -25 -12 -25 -20 0 -10 20 -14 76 -15 68 -2 75 0
72 16 -2 10 -13 19 -26 21 l-22 3 0 237 0 237 -46 0 c-25 0 -50 -6 -56 -12z"/>
<path d="M8085 5053 c-3 -26 -7 -55 -8 -63 -1 -8 -14 -16 -30 -18 -34 -4 -37
-32 -3 -32 l24 0 4 -138 c3 -154 8 -167 65 -178 46 -9 111 19 93 41 -9 11 -16
11 -47 -1 -19 -8 -32 -11 -29 -6 3 6 -1 12 -9 16 -12 4 -15 29 -15 136 l0 130
50 0 c38 0 50 4 50 15 0 11 -12 15 -50 15 l-49 0 -3 62 c-2 49 -7 63 -20 66
-13 3 -18 -7 -23 -45z"/>
<path d="M7196 4980 c-51 -16 -91 -70 -50 -70 9 0 12 5 8 12 -4 6 -3 8 3 5 6
-4 27 0 47 8 65 27 109 1 120 -71 l6 -41 -63 -5 c-112 -9 -178 -61 -162 -127
17 -68 96 -90 171 -46 37 22 48 25 55 14 5 -8 9 -17 9 -21 0 -5 18 -8 40 -8
43 0 57 23 20 35 -18 6 -20 15 -21 108 0 56 -5 118 -12 137 -22 64 -93 93
-171 70z m124 -233 c0 -56 -23 -78 -89 -85 -45 -4 -51 -2 -67 23 -16 25 -16
30 -3 54 16 29 65 50 122 50 l37 1 0 -43z"/>
<path d="M7774 4977 c-53 -21 -75 -40 -65 -57 8 -12 16 -11 54 8 31 15 54 20
75 16 41 -8 54 -25 62 -80 7 -44 7 -44 -24 -45 -85 -2 -132 -17 -166 -51 -39
-39 -39 -76 0 -118 29 -31 34 -32 81 -27 27 3 61 15 76 27 32 25 39 25 46 0 4
-16 14 -20 46 -20 46 0 56 19 19 35 -20 9 -23 16 -21 65 4 72 -7 181 -16 176
-4 -3 -7 4 -7 16 2 47 -96 81 -160 55z m126 -232 c0 -40 -4 -48 -30 -64 -16
-10 -28 -20 -26 -22 13 -13 -82 6 -96 19 -53 46 13 109 115 111 l37 1 0 -45z"/>
</g>
</svg>
